<?xml version="1.0" standalone="no"?>
<!DOCTYPE svg PUBLIC "-//W3C//DTD SVG 20010904//EN"
 "http://www.w3.org/TR/2001/REC-SVG-20010904/DTD/svg10.dtd">
<svg version="1.0" xmlns="http://www.w3.org/2000/svg"
 width="198.000000pt" height="186.000000pt" viewBox="0 0 198.000000 186.000000"
 preserveAspectRatio="xMidYMid meet">

<g transform="translate(0.000000,186.000000) scale(0.100000,-0.100000)"
fill="#000000" stroke="none">
<path d="M1335 1781 c-3 -5 64 -46 148 -90 116 -61 165 -93 199 -129 25 -26
47 -54 50 -62 3 -8 7 -13 10 -10 12 12 191 276 195 287 4 10 -57 13 -295 13
-174 0 -303 -4 -307 -9z"/>
<path d="M1025 1733 c-76 -27 -139 -68 -180 -115 -51 -61 -182 -322 -201 -405
-25 -104 -14 -204 46 -418 27 -99 50 -199 50 -222 0 -40 3 -44 41 -64 l42 -21
-6 24 c-3 12 -13 58 -22 100 -9 43 -22 96 -31 120 -14 41 -14 42 13 65 34 27
37 27 70 6 21 -14 27 -15 31 -5 2 8 16 37 31 66 26 52 26 53 6 62 -25 11 -27
53 -3 67 13 9 22 7 37 -7 19 -17 20 -17 37 11 10 15 23 35 28 43 10 13 9 13
-6 1 -15 -11 -22 -11 -43 3 -28 19 -32 38 -10 56 20 16 47 9 60 -17 11 -20 18
-12 85 100 68 112 230 365 253 394 7 10 -16 25 -87 59 l-97 47 -55 -12 c-58
-13 -173 -68 -207 -99 -11 -9 -57 -92 -103 -183 -79 -158 -83 -170 -90 -252
l-7 -86 39 -52 c43 -59 26 -63 -20 -5 -30 37 -31 41 -29 135 l2 96 85 170 c46
94 95 180 108 192 36 33 161 92 222 105 53 10 57 10 157 -35 l102 -46 18 22
18 22 -92 45 c-80 38 -102 45 -167 47 -53 2 -90 -2 -125 -14z m210 -176 c13
-10 16 -21 11 -41 -5 -22 -12 -27 -33 -24 -38 4 -52 32 -29 57 22 25 26 25 51
8z m-171 -60 c36 -26 -4 -84 -41 -61 -24 15 -27 38 -8 58 20 19 26 20 49 3z
m114 -59 c28 -28 1 -75 -37 -63 -25 8 -34 31 -21 56 12 21 40 25 58 7z m-160
-86 c-2 -23 -8 -27 -33 -27 -24 0 -31 5 -33 24 -5 32 23 54 50 40 13 -7 18
-19 16 -37z m117 -42 c9 -15 -14 -50 -33 -50 -39 0 -57 51 -25 69 18 9 46 0
58 -19z m-175 -49 c13 -25 4 -48 -21 -56 -38 -12 -65 35 -37 63 18 18 46 14
58 -7z m110 -56 c20 -24 8 -50 -24 -50 -36 0 -56 26 -37 49 17 20 45 21 61 1z
m-170 -50 c26 -32 -13 -81 -47 -59 -24 15 -27 38 -8 58 20 20 39 20 55 1z"/>
<path d="M585 803 c-10 -16 -48 -71 -85 -123 -165 -233 -423 -606 -427 -618
-4 -9 51 -12 253 -12 l259 0 -35 21 c-75 44 -81 94 -21 163 22 25 65 98 96
161 54 110 57 120 52 173 -6 66 -56 262 -67 262 -4 0 -16 -12 -25 -27z"/>
<path d="M836 678 c7 -29 14 -68 14 -85 0 -18 3 -33 6 -33 3 0 39 16 81 36 78
38 83 54 15 54 -24 0 -44 10 -76 40 -24 22 -46 40 -49 40 -3 0 1 -24 9 -52z"/>
<path d="M735 490 c-9 -14 -12 -12 63 -49 58 -29 82 -33 82 -12 0 5 -28 21
-62 37 -35 15 -66 30 -70 32 -3 2 -9 -2 -13 -8z"/>
<path d="M661 332 c-32 -64 -71 -127 -85 -139 -14 -13 -26 -29 -26 -36 0 -15
119 -87 144 -87 9 0 21 11 27 24 10 21 7 30 -16 60 -15 20 -25 39 -22 42 3 3
13 -6 22 -20 22 -34 28 -33 46 7 15 30 14 35 -8 72 -12 22 -23 44 -23 48 0 14
21 -4 40 -35 l18 -30 34 68 c18 38 34 72 36 76 3 7 -56 40 -103 58 -24 9 -27
5 -84 -108z m141 39 c9 -16 14 -32 10 -35 -6 -6 -42 43 -42 57 0 16 16 5 32
-22z"/>
</g>
</svg>
